<svg width="29" height="26" viewBox="0 0 29 26" fill="none" xmlns="http://www.w3.org/2000/svg">
<path fill-rule="evenodd" clip-rule="evenodd" d="M14.0593 22.75C13.7492 22.75 13.4517 22.6359 13.2324 22.4327L5.04634 14.8494C4.58968 14.4263 4.58968 13.7404 5.04634 13.3173C5.50301 12.8943 6.24349 12.8943 6.70016 13.3173L12.8899 19.0513L12.8899 4.33333C12.8899 3.73501 13.4134 3.25 14.0593 3.25C14.7052 3.25 15.2287 3.73501 15.2287 4.33333L15.2287 19.0513L21.4184 13.3173C21.8751 12.8943 22.6156 12.8943 23.0723 13.3173C23.529 13.7403 23.529 14.4263 23.0723 14.8494L14.8862 22.4327C14.6669 22.6359 14.3694 22.75 14.0593 22.75Z" fill="black"/>
</svg>
